Simulation
nRows=34
nColumns=15
endheader
time  TH_x TH_y TH_z SC_y  SC_z  SC_x  AC_y  AC_z  AC_x  GH_y  GH_z  GH_yy  EL_x  PS_y
1.4450000000000003  0.000000  0.000000  0.000000  -64.47231820778224  15.320959069747092  59.23967702037224  54.92452756440111  -10.612591225790794  0.039698804796049036  2.5933818531169077  43.79678133349071  -4.911618452610241  17.030888557347623  120.000000
1.4739000000000002  0.000000  0.000000  0.000000  -64.72819087049814  15.283015588226075  59.24163700447417  55.141235654507874  -10.355629548141456  0.47438019387367203  2.56720356076373  43.9063947780306  -4.880331143507534  16.967295607323678  120.000000
1.5028000000000004  0.000000  0.000000  0.000000  -64.87894159071475  15.243769529075264  59.241637006177285  55.277960116635846  -10.200635834754813  0.721751680005818  2.5970307184614816  43.92471627853596  -4.953438915269291  16.918552803571536  120.000000
1.5317000000000003  0.000000  0.000000  0.000000  -64.92883251549965  15.205711598892332  59.241636993433104  55.332763163164515  -10.15019887423843  0.779781518346281  2.6940160300550797  43.8375784515572  -5.151147952090299  16.88203048228229  120.000000
1.5606000000000002  0.000000  0.000000  0.000000  -64.88262897409446  15.171740219653971  59.24163700678025  55.304278102628935  -10.206031501222343  0.6488067264320738  2.8644825505084914  43.63517079634043  -5.476932489497088  16.855617739189487  120.000000
1.5895000000000004  0.000000  0.000000  0.000000  -64.74469769426918  15.145239712217807  59.240402294838646  55.19117361757938  -10.369373999403999  0.33093916324796496  3.108948612353318  43.31255294434771  -5.917185229538586  16.838308070895575  120.000000
1.6184000000000003  0.000000  0.000000  0.000000  -64.51906466012262  15.127059879735071  59.24163701771517  54.99266281557642  -10.640646407084748  -0.17174532804218826  3.4213398961966  42.86521063155239  -6.445535501979265  16.830097900742224  120.000000
1.6473000000000002  0.000000  0.000000  0.000000  -64.20733381710404  15.117052970803146  59.23285620734198  54.708061457125226  -11.007168391482256  -0.8504451190297787  3.7926725288321355  42.293932839946194  -7.0302365378760765  16.832923826853317  120.000000
1.6762000000000004  0.000000  0.000000  0.000000  -63.807026949215974  15.115982950257363  59.159598864539575  54.33836767332425  -11.430616162925238  -1.6797153344732687  4.21528901186633  41.61336899963407  -7.642818214333611  16.850907478440735  120.000000
1.7051000000000003  0.000000  0.000000  0.000000  -63.31600850998846  15.120155272017442  58.95797010384099  53.88933666995105  -11.864076375116715  -2.6265741679314405  4.681597505058405  40.843096431548545  -8.262583636215412  16.88745600527189  120.000000
1.7340000000000004  0.000000  0.000000  0.000000  -62.737403199136374  15.117863840339758  58.588564908423606  53.37371625506053  -12.26993305283131  -3.6599136472475187  5.181781710865032  39.99769445042658  -8.877947847702806  16.94246272712167  120.000000
1.7629000000000004  0.000000  0.000000  0.000000  -62.07968716745447  15.092011310093008  58.03248202743234  52.81097206406085  -12.621929602057886  -4.750276293162725  5.705991577359079  39.09175589892067  -9.485385264784192  17.012010088705118  120.000000
1.7918000000000003  0.000000  0.000000  0.000000  -61.35471197278623  15.0239207681016  57.28682991060774  52.22281284730304  -12.904544987323515  -5.870919003437728  6.246077324237983  38.14159654060938  -10.085294434590915  17.089284286668303  120.000000
1.8207000000000004  0.000000  0.000000  0.000000  -60.57553342494342  14.89642334515747  56.36345552967078  51.62898292631942  -13.111456531549182  -7.000005686170544  6.7953080000191335  37.16286257776054  -10.678512189024202  17.165597963533614  120.000000
1.8496000000000004  0.000000  0.000000  0.000000  -59.75686347385357  14.694707705080477  55.28527359830225  51.0462752480534  -13.243244960572833  -8.121690103941104  7.349049640138576  36.1695338772452  -11.263711209718087  17.23294043988243  120.000000
1.8785000000000003  0.000000  0.000000  0.000000  -58.91548036079322  14.411330328463743  54.08449182361824  50.48709908841836  -13.309442284057507  -9.224787352260506  7.902483055839993  35.17174633979923  -11.83805585495749  17.286020662393017  120.000000
1.9074000000000004  0.000000  0.000000  0.000000  -58.06791477264193  14.052480472333684  52.79822119725673  49.95718305921316  -13.330983023502055  -10.29796123029458  8.446616025308863  34.17651536413651  -12.399896505201328  17.320558254273653  120.000000
1.9363000000000004  0.000000  0.000000  0.000000  -57.22973797060693  13.633604452386393  51.461746626004995  49.45926163997905  -13.330983027595707  -11.324946119724602  8.968067791379616  33.18673427028588  -12.949736494047896  17.332869623356785  120.000000
1.9652000000000003  0.000000  0.000000  0.000000  -56.416130258371055  13.170744542026682  50.09197582608477  48.99803075960118  -13.308460957558655  -12.277182962952487  9.455927212526506  32.1938619432211  -13.488726761267857  17.322813578151827  120.000000
1.9941000000000004  0.000000  0.000000  0.000000  -55.64163492313464  12.679302085239206  48.68301395137155  48.58094867160689  -13.234892588974267  -13.11458770303355  9.905655123387524  31.1780916929503  -14.015762289214884  17.293642155213735  120.000000
2.0230000000000006  0.000000  0.000000  0.000000  -54.91986763064085  12.17764956033912  47.21890231426005  48.215181362309906  -13.081672885217191  -13.79646678007031  10.315951912378079  30.122036921783  -14.525999468946251  17.249006499970754  120.000000
2.0519000000000003  0.000000  0.000000  0.000000  -54.26341181884153  11.686880562700354  45.68440112155504  47.90355395890686  -12.836397552637349  -14.291719089777619  10.688994130503799  29.017944505492345  -15.01179209196327  17.190715536146666  120.000000
2.0808000000000004  0.000000  0.000000  0.000000  -53.68056374310644  11.223974005893202  44.07116310656127  47.64194627099315  -12.499666681132798  -14.589320041201043  11.03360946695319  27.8660627649964  -15.466160983376238  17.118371813165684  120.000000
2.1097000000000006  0.000000  0.000000  0.000000  -53.16697071294572  10.79184839550145  42.3849572775056  47.41505655383228  -12.079051294036356  -14.715259978052703  11.368590525289205  26.674897824393394  -15.886629285364052  17.03312540548528  120.000000
2.1386000000000003  0.000000  0.000000  0.000000  -52.70321893464905  10.376957164358327  40.65539429079628  47.194124408318295  -11.590658389306844  -14.741418242181256  11.727250632517796  25.459964993784272  -16.27960201893474  16.93977165094678  120.000000
2.1675000000000004  0.000000  0.000000  0.000000  -52.27000654945115  9.959991034009404  38.91587953307082  46.95391608673638  -11.050633811037992  -14.741418235622143  12.145123884946097  24.235607472828768  -16.664499986659752  16.840292907044667  120.000000
2.1964000000000006  0.000000  0.000000  0.000000  -51.86228323026287  9.526412403693918  37.176286099253275  46.691715806915035  -10.460364657259198  -14.74141823390078  12.642689205693436  23.00600191260131  -17.070159635798873  16.7292454556491  120.000000
2.2253000000000003  0.000000  0.000000  0.000000  -51.48260865865244  9.068941878746838  35.43914087192243  46.41588323886831  -9.81919350361726  -14.74141824230807  13.237375263419821  21.769595087409584  -17.52847222864087  16.600317786166222  120.000000
2.2542000000000004  0.000000  0.000000  0.000000  -51.13768950490149  8.591832678698442  33.69470418916887  46.14140760235004  -9.123313795145528  -14.714270920737931  13.9444495441785  20.519851983515107  -18.06499310476094  16.448929013233023  120.000000
2.2831000000000006  0.000000  0.000000  0.000000  -50.84225724900173  8.114335561752785  31.900596317123775  45.896042097806166  -8.35391225821224  -14.583261099856186  14.766146989189476  19.242983218635864  -18.690768292709482  16.26683313702838  120.000000
2.3120000000000003  0.000000  0.000000  0.000000  -50.60477693334498  7.660112523658625  30.011607438076616  45.70092882918343  -7.493759206860597  -14.272492151524313  15.705283497245224  17.928420241108043  -19.398080258479933  16.048111550547926  120.000000
2.3409000000000004  0.000000  0.000000  0.000000  -50.41221222925723  7.242911177285136  28.00277637002062  45.55546594780443  -6.534066390391998  -13.752162861837359  16.774102544967345  16.576223552801306  -20.158726665193026  15.797451409350975  120.000000
2.3698000000000006  0.000000  0.000000  0.000000  -50.23592686091154  6.865235506263632  25.864958744762145  45.44520928008167  -5.471894718391796  -13.027446333987445  17.98517901332837  15.196340517649492  -20.93051601209539  15.524635633858132  120.000000
2.3987000000000003  0.000000  0.000000  0.000000  -50.04400904121835  6.524642281155679  23.603140010610854  45.35257537975257  -4.314379143458863  -12.119089957066217  19.343692328472773  13.805192826706474  -21.66893025088844  15.23851269558109  120.000000
